<?xml version="1.0" encoding="UTF-8"?>
<svg xmlns="http://www.w3.org/2000/svg" viewBox="0 0 1600 1010" font-family="Helvetica, Arial, sans-serif">
<rect width="1600" height="1010" fill="#FFFFFF"/>
<text x="800" y="56" text-anchor="middle" font-size="42" font-weight="bold" fill="#1D4ED8" letter-spacing="0.5">V2 Pilot Rate Sheet Distribution</text>
<rect x="60" y="227" width="350" height="150" rx="14" fill="#F0FAF8" stroke="#0F766E" stroke-width="1.5"/>
<rect x="60" y="227" width="8" height="150" rx="4" fill="#0F766E"/>
<text x="235" y="271" text-anchor="middle" font-family="Georgia, 'Times New Roman', serif" font-style="italic" font-size="26" fill="#1D4ED8" letter-spacing="2">PILOT PERIOD</text>
<text x="235" y="319" text-anchor="middle" font-family="'Courier New', Courier, monospace" font-size="30" font-weight="bold" fill="#0F766E">Jun 1 &#8211; Jul 26</text>
<text x="235" y="357" text-anchor="middle" font-family="'Courier New', Courier, monospace" font-size="30" font-weight="bold" fill="#0F766E">(8 weeks)</text>
<rect x="60" y="498" width="350" height="150" rx="14" fill="#F0FAF8" stroke="#0F766E" stroke-width="1.5"/>
<rect x="60" y="498" width="8" height="150" rx="4" fill="#0F766E"/>
<text x="235" y="542" text-anchor="middle" font-family="Georgia, 'Times New Roman', serif" font-style="italic" font-size="26" fill="#1D4ED8" letter-spacing="2">RATE SHEETS</text>
<text x="235" y="606" text-anchor="middle" font-family="'Courier New', Courier, monospace" font-size="56" font-weight="bold" fill="#0F766E">14</text>
<rect x="60" y="769" width="350" height="150" rx="14" fill="#F0FAF8" stroke="#0F766E" stroke-width="1.5"/>
<rect x="60" y="769" width="8" height="150" rx="4" fill="#0F766E"/>
<text x="235" y="813" text-anchor="middle" font-family="Georgia, 'Times New Roman', serif" font-style="italic" font-size="26" fill="#1D4ED8" letter-spacing="2">SPREAD</text>
<text x="235" y="861" text-anchor="middle" font-family="'Courier New', Courier, monospace" font-size="30" font-weight="bold" fill="#0F766E">0.75 to 1.15</text>
<text x="235" y="899" text-anchor="middle" font-family="'Courier New', Courier, monospace" font-size="30" font-weight="bold" fill="#0F766E">(40 BPS)</text>
<text x="1102.6" y="132" text-anchor="middle" font-size="25" font-weight="bold" fill="#D64545">Worse for LO</text>
<line x1="1242.6" y1="146" x2="956.6" y2="146" stroke="#D64545" stroke-width="3"/>
<path d="M 942.6,146 L 960.6,137 L 960.6,155 Z" fill="#D64545"/>
<text x="1422.6" y="132" text-anchor="middle" font-size="25" font-weight="bold" fill="#3E9B4F">Better for LO</text>
<line x1="1282.6" y1="146" x2="1568.6" y2="146" stroke="#3E9B4F" stroke-width="3"/>
<path d="M 1582.6,146 L 1564.6,137 L 1564.6,155 Z" fill="#3E9B4F"/>
<rect x="450" y="265" width="300" height="55" fill="#F7F8FA"/>
<rect x="450" y="375" width="300" height="55" fill="#F7F8FA"/>
<rect x="450" y="485" width="300" height="55" fill="#F7F8FA"/>
<rect x="450" y="705" width="300" height="55" fill="#F7F8FA"/>
<rect x="450" y="815" width="300" height="55" fill="#F7F8FA"/>
<rect x="450" y="925" width="300" height="55" fill="#F7F8FA"/>
<rect x="450" y="166" width="300" height="44" fill="#EEF1F5"/>
<text x="540" y="196" text-anchor="middle" font-size="22" font-weight="bold" fill="#1D4ED8" letter-spacing="1">TEAM</text>
<text x="690" y="196" text-anchor="middle" font-size="22" font-weight="bold" fill="#1D4ED8" letter-spacing="1">MODIFIER</text>
<rect x="450" y="595" width="1110" height="55" fill="#F7E39C"/>
<line x1="450" y1="210" x2="750" y2="210" stroke="#C3C9D2" stroke-width="1"/>
<line x1="450" y1="265" x2="750" y2="265" stroke="#C3C9D2" stroke-width="1"/>
<line x1="450" y1="320" x2="750" y2="320" stroke="#C3C9D2" stroke-width="1"/>
<line x1="450" y1="375" x2="750" y2="375" stroke="#C3C9D2" stroke-width="1"/>
<line x1="450" y1="430" x2="750" y2="430" stroke="#C3C9D2" stroke-width="1"/>
<line x1="450" y1="485" x2="750" y2="485" stroke="#C3C9D2" stroke-width="1"/>
<line x1="450" y1="540" x2="750" y2="540" stroke="#C3C9D2" stroke-width="1"/>
<line x1="450" y1="595" x2="750" y2="595" stroke="#C3C9D2" stroke-width="1"/>
<line x1="450" y1="650" x2="750" y2="650" stroke="#C3C9D2" stroke-width="1"/>
<line x1="450" y1="705" x2="750" y2="705" stroke="#C3C9D2" stroke-width="1"/>
<line x1="450" y1="760" x2="750" y2="760" stroke="#C3C9D2" stroke-width="1"/>
<line x1="450" y1="815" x2="750" y2="815" stroke="#C3C9D2" stroke-width="1"/>
<line x1="450" y1="870" x2="750" y2="870" stroke="#C3C9D2" stroke-width="1"/>
<line x1="450" y1="925" x2="750" y2="925" stroke="#C3C9D2" stroke-width="1"/>
<line x1="450" y1="980" x2="750" y2="980" stroke="#C3C9D2" stroke-width="1"/>
<line x1="450" y1="166" x2="750" y2="166" stroke="#C3C9D2" stroke-width="1.5"/>
<line x1="450" y1="166" x2="450" y2="980" stroke="#C3C9D2" stroke-width="1.5"/>
<line x1="750" y1="166" x2="750" y2="980" stroke="#C3C9D2" stroke-width="1.5"/>
<line x1="630" y1="166" x2="630" y2="980" stroke="#C3C9D2" stroke-width="1"/>
<line x1="450" y1="210" x2="750" y2="210" stroke="#9AA3AF" stroke-width="2"/>
<line x1="778" y1="166" x2="778" y2="980" stroke="#9AA3AF" stroke-width="2" stroke-dasharray="7,6"/>
<text x="849.6" y="188" text-anchor="middle" font-size="17" fill="#7B8794">0.75</text>
<line x1="849.6" y1="198" x2="849.6" y2="980" stroke="#E4E7EB" stroke-width="1"/>
<text x="932.2" y="188" text-anchor="middle" font-size="17" fill="#7B8794">0.80</text>
<line x1="932.2" y1="198" x2="932.2" y2="980" stroke="#E4E7EB" stroke-width="1"/>
<text x="1014.8" y="188" text-anchor="middle" font-size="17" fill="#7B8794">0.85</text>
<line x1="1014.8" y1="198" x2="1014.8" y2="980" stroke="#E4E7EB" stroke-width="1"/>
<text x="1097.4" y="188" text-anchor="middle" font-size="17" fill="#7B8794">0.90</text>
<line x1="1097.4" y1="198" x2="1097.4" y2="980" stroke="#E4E7EB" stroke-width="1"/>
<text x="1180.0" y="188" text-anchor="middle" font-size="17" fill="#7B8794">0.95</text>
<line x1="1180.0" y1="198" x2="1180.0" y2="980" stroke="#E4E7EB" stroke-width="1"/>
<text x="1262.6" y="188" text-anchor="middle" font-size="17" fill="#7B8794">1.00</text>
<text x="1345.2" y="188" text-anchor="middle" font-size="17" fill="#7B8794">1.05</text>
<line x1="1345.2" y1="198" x2="1345.2" y2="980" stroke="#E4E7EB" stroke-width="1"/>
<text x="1427.8" y="188" text-anchor="middle" font-size="17" fill="#7B8794">1.10</text>
<line x1="1427.8" y1="198" x2="1427.8" y2="980" stroke="#E4E7EB" stroke-width="1"/>
<text x="1510.4" y="188" text-anchor="middle" font-size="17" fill="#7B8794">1.15</text>
<line x1="1510.4" y1="198" x2="1510.4" y2="980" stroke="#E4E7EB" stroke-width="1"/>
<text x="540" y="245.5" text-anchor="middle" font-size="27" font-weight="bold" fill="#1F2933">Chiefs</text>
<text x="690" y="245.5" text-anchor="middle" font-size="26" fill="#D64545">&#8722;0.20</text>
<rect x="849.6" y="219.5" width="413.0" height="36" rx="6" fill="#D64545"/>
<text x="839.6" y="245.5" text-anchor="end" font-size="21" font-weight="bold" fill="#D64545">0.75</text>
<text x="540" y="300.5" text-anchor="middle" font-size="27" font-weight="bold" fill="#1F2933">Jaguars</text>
<text x="690" y="300.5" text-anchor="middle" font-size="26" fill="#D64545">&#8722;0.17</text>
<rect x="899.1" y="274.5" width="363.5" height="36" rx="6" fill="#D64545"/>
<text x="889.1" y="300.5" text-anchor="end" font-size="21" font-weight="bold" fill="#D64545">0.78</text>
<text x="540" y="355.5" text-anchor="middle" font-size="27" font-weight="bold" fill="#1F2933">Colts</text>
<text x="690" y="355.5" text-anchor="middle" font-size="26" fill="#D64545">&#8722;0.14</text>
<rect x="948.7" y="329.5" width="313.9" height="36" rx="6" fill="#D64545"/>
<text x="938.7" y="355.5" text-anchor="end" font-size="21" font-weight="bold" fill="#D64545">0.81</text>
<text x="540" y="410.5" text-anchor="middle" font-size="27" font-weight="bold" fill="#1F2933">Cowboys</text>
<text x="690" y="410.5" text-anchor="middle" font-size="26" fill="#D64545">&#8722;0.10</text>
<rect x="1014.8" y="384.5" width="247.8" height="36" rx="6" fill="#D64545"/>
<text x="1004.8" y="410.5" text-anchor="end" font-size="21" font-weight="bold" fill="#D64545">0.85</text>
<text x="540" y="465.5" text-anchor="middle" font-size="27" font-weight="bold" fill="#1F2933">Eagles</text>
<text x="690" y="465.5" text-anchor="middle" font-size="26" fill="#D64545">&#8722;0.08</text>
<rect x="1047.8" y="439.5" width="214.8" height="36" rx="6" fill="#D64545"/>
<text x="1037.8" y="465.5" text-anchor="end" font-size="21" font-weight="bold" fill="#D64545">0.87</text>
<text x="540" y="520.5" text-anchor="middle" font-size="27" font-weight="bold" fill="#1F2933">Steelers</text>
<text x="690" y="520.5" text-anchor="middle" font-size="26" fill="#D64545">&#8722;0.04</text>
<rect x="1113.9" y="494.5" width="148.7" height="36" rx="6" fill="#D64545"/>
<text x="1103.9" y="520.5" text-anchor="end" font-size="21" font-weight="bold" fill="#D64545">0.91</text>
<text x="540" y="575.5" text-anchor="middle" font-size="27" font-weight="bold" fill="#1F2933">Bengals</text>
<text x="690" y="575.5" text-anchor="middle" font-size="26" fill="#D64545">&#8722;0.02</text>
<rect x="1147.0" y="549.5" width="115.7" height="36" rx="6" fill="#D64545"/>
<text x="1137.0" y="575.5" text-anchor="end" font-size="21" font-weight="bold" fill="#D64545">0.93</text>
<text x="540" y="630.5" text-anchor="middle" font-size="27" font-weight="bold" fill="#1F4EB0">Ravens</text>
<text x="690" y="630.5" text-anchor="middle" font-size="26" fill="#1F4EB0">0.00</text>
<rect x="1180.0" y="604.5" width="82.6" height="36" rx="6" fill="#D9A514"/>
<text x="1170.0" y="630.5" text-anchor="end" font-size="21" font-weight="bold" fill="#8A6A0B">0.95</text>
<text x="1550" y="630.5" text-anchor="end" font-size="18" font-weight="bold" fill="#1F4EB0" letter-spacing="1">(CONTROL = BASELINE)</text>
<text x="540" y="685.5" text-anchor="middle" font-size="27" font-weight="bold" fill="#1F2933">Vikings</text>
<text x="690" y="685.5" text-anchor="middle" font-size="26" fill="#3E9B4F">+0.03</text>
<rect x="1229.6" y="659.5" width="33.0" height="36" rx="6" fill="#3E9B4F"/>
<text x="1219.6" y="685.5" text-anchor="end" font-size="21" font-weight="bold" fill="#3E9B4F">0.98</text>
<text x="540" y="740.5" text-anchor="middle" font-size="27" font-weight="bold" fill="#1F2933">Packers</text>
<text x="690" y="740.5" text-anchor="middle" font-size="26" fill="#3E9B4F">+0.06</text>
<rect x="1262.6" y="714.5" width="16.5" height="36" rx="6" fill="#3E9B4F"/>
<text x="1289.1" y="740.5" font-size="21" font-weight="bold" fill="#3E9B4F">1.01</text>
<text x="540" y="795.5" text-anchor="middle" font-size="27" font-weight="bold" fill="#1F2933">Bears</text>
<text x="690" y="795.5" text-anchor="middle" font-size="26" fill="#3E9B4F">+0.10</text>
<rect x="1262.6" y="769.5" width="82.6" height="36" rx="6" fill="#3E9B4F"/>
<text x="1355.2" y="795.5" font-size="21" font-weight="bold" fill="#3E9B4F">1.05</text>
<text x="540" y="850.5" text-anchor="middle" font-size="27" font-weight="bold" fill="#1F2933">Cardinals</text>
<text x="690" y="850.5" text-anchor="middle" font-size="26" fill="#3E9B4F">+0.14</text>
<rect x="1262.6" y="824.5" width="148.7" height="36" rx="6" fill="#3E9B4F"/>
<text x="1421.3" y="850.5" font-size="21" font-weight="bold" fill="#3E9B4F">1.09</text>
<text x="540" y="905.5" text-anchor="middle" font-size="27" font-weight="bold" fill="#1F2933">Rams</text>
<text x="690" y="905.5" text-anchor="middle" font-size="26" fill="#3E9B4F">+0.17</text>
<rect x="1262.6" y="879.5" width="198.3" height="36" rx="6" fill="#3E9B4F"/>
<text x="1470.9" y="905.5" font-size="21" font-weight="bold" fill="#3E9B4F">1.12</text>
<text x="540" y="960.5" text-anchor="middle" font-size="27" font-weight="bold" fill="#1F2933">Dolphins</text>
<text x="690" y="960.5" text-anchor="middle" font-size="26" fill="#3E9B4F">+0.20</text>
<rect x="1262.6" y="934.5" width="247.8" height="36" rx="6" fill="#3E9B4F"/>
<text x="1520.4" y="960.5" font-size="21" font-weight="bold" fill="#3E9B4F">1.15</text>
<line x1="1262.6" y1="198" x2="1262.6" y2="980" stroke="#1F2933" stroke-width="3"/>
</svg>